<?xml version="1.0" encoding="UTF-8" standalone="no"?>
<!-- Created with Inkscape (http://www.inkscape.org/) -->

<svg
   xmlns:dc="http://purl.org/dc/elements/1.1/"
   xmlns:cc="http://creativecommons.org/ns#"
   xmlns:rdf="http://www.w3.org/1999/02/22-rdf-syntax-ns#"
   xmlns:svg="http://www.w3.org/2000/svg"
   xmlns="http://www.w3.org/2000/svg"
   xmlns:xlink="http://www.w3.org/1999/xlink"
   xmlns:sodipodi="http://sodipodi.sourceforge.net/DTD/sodipodi-0.dtd"
   xmlns:inkscape="http://www.inkscape.org/namespaces/inkscape"
   width="64.000000px"
   height="64.000000px"
   id="svg2"
   sodipodi:version="0.32"
   inkscape:version="0.47 r22583"
   sodipodi:docname="1195445177561001893jean_victor_balin_red_cross.svg"
   inkscape:export-filename="/datas/wiki/red_cross.png"
   inkscape:export-xdpi="90.000000"
   inkscape:export-ydpi="90.000000"
   version="1.1">
  <defs
     id="defs4">
    <linearGradient
       id="linearGradient2814">
      <stop
         id="stop2816"
         offset="0.0000000"
         style="stop-color:#6b140d;stop-opacity:1.0000000;" />
      <stop
         id="stop2818"
         offset="1.0000000"
         style="stop-color:#220505;stop-opacity:1.0000000;" />
    </linearGradient>
    <linearGradient
       id="linearGradient1350">
      <stop
         id="stop1352"
         offset="0.0000000"
         style="stop-color:#e25c4a;stop-opacity:1.0000000;" />
      <stop
         id="stop1354"
         offset="1.0000000"
         style="stop-color:#7a1212;stop-opacity:1.0000000;" />
    </linearGradient>
    <linearGradient
       id="linearGradient2171">
      <stop
         style="stop-color:#ffffff;stop-opacity:1.0000000;"
         offset="0.0000000"
         id="stop2173" />
      <stop
         style="stop-color:#a3a5ee;stop-opacity:0.0000000;"
         offset="1.0000000"
         id="stop2175" />
    </linearGradient>
    <linearGradient
       id="linearGradient2160">
      <stop
         id="stop2162"
         offset="0.0000000"
         style="stop-color:#d3cece;stop-opacity:1.0000000;" />
      <stop
         id="stop2164"
         offset="1.0000000"
         style="stop-color:#474240;stop-opacity:1.0000000;" />
    </linearGradient>
    <linearGradient
       inkscape:collect="always"
       xlink:href="#linearGradient2160"
       id="linearGradient1354"
       gradientUnits="userSpaceOnUse"
       x1="25.160305"
       y1="14.247937"
       x2="35.297707"
       y2="53.770641" />
    <linearGradient
       inkscape:collect="always"
       xlink:href="#linearGradient2171"
       id="linearGradient1365"
       gradientUnits="userSpaceOnUse"
       x1="31.767176"
       y1="15.999999"
       x2="45.190842"
       y2="54.106869" />
  </defs>
  <sodipodi:namedview
     id="base"
     pagecolor="#ffffff"
     bordercolor="#666666"
     borderopacity="1.0"
     inkscape:pageopacity="0.0"
     inkscape:pageshadow="2"
     inkscape:zoom="8.203125"
     inkscape:cx="27.817049"
     inkscape:cy="41.752381"
     inkscape:document-units="px"
     inkscape:current-layer="layer1"
     showgrid="false"
     inkscape:grid-bbox="true"
     inkscape:grid-points="true"
     inkscape:window-width="1194"
     inkscape:window-height="907"
     inkscape:window-x="205"
     inkscape:window-y="25"
     showguides="false"
     inkscape:window-maximized="0" />
  <metadata
     id="metadata7">
    <rdf:RDF>
      <cc:Work
         rdf:about="">
        <dc:format>image/svg+xml</dc:format>
        <dc:type
           rdf:resource="http://purl.org/dc/dcmitype/StillImage" />
        <dc:title></dc:title>
        <dc:date>2005-10-21</dc:date>
        <dc:creator>
          <cc:Agent>
            <dc:title>Jean-Victor Balin</dc:title>
          </cc:Agent>
        </dc:creator>
        <dc:description>jean.victor.balin@gmail.com</dc:description>
        <cc:license
           rdf:resource="http://web.resource.org/cc/PublicDomain" />
        <dc:subject>
          <rdf:Bag>
            <rdf:li>icon</rdf:li>
          </rdf:Bag>
        </dc:subject>
      </cc:Work>
      <cc:License
         rdf:about="http://web.resource.org/cc/PublicDomain">
        <cc:permits
           rdf:resource="http://web.resource.org/cc/Reproduction" />
        <cc:permits
           rdf:resource="http://web.resource.org/cc/Distribution" />
        <cc:permits
           rdf:resource="http://web.resource.org/cc/DerivativeWorks" />
      </cc:License>
    </rdf:RDF>
  </metadata>
  <g
     inkscape:label="Calque 1"
     inkscape:groupmode="layer"
     id="layer1">
    <path
       style="fill:#002b00;fill-opacity:1;stroke:none;stroke-width:2;stroke-linecap:round;stroke-linejoin:round;stroke-miterlimit:4;stroke-opacity:1"
       d="M 32.000000,8.6306766 C 19.113097,8.6306766 8.6306766,19.113097 8.6306766,32.000000 C 8.6306766,44.886903 19.113097,55.369323 32.000000,55.369323 C 44.886903,55.369323 55.369323,44.886903 55.369323,32.000000 C 55.369323,19.113097 44.886903,8.6306766 32.000000,8.6306766 z "
       id="path1373" />
    <path
       style="fill:#005500;fill-opacity:1;stroke:none;stroke-width:2;stroke-linecap:round;stroke-linejoin:round;stroke-miterlimit:4;stroke-opacity:1"
       d="M 54.500005,32.000000 C 54.500005,44.420003 44.420003,54.500005 32.000000,54.500005 C 19.579997,54.500005 9.4999950,44.420003 9.4999950,32.000000 C 9.4999950,19.579997 19.579997,9.4999950 32.000000,9.4999950 C 44.420003,9.4999950 54.500005,19.579997 54.500005,32.000000 z "
       id="path1339" />
    <path
       sodipodi:nodetypes="cccscccscccccccscccscccccc"
       style="fill:url(#linearGradient1354);fill-opacity:1.0000000;stroke:none;stroke-width:2.0000000;stroke-linecap:round;stroke-linejoin:round;stroke-miterlimit:4.0000000;stroke-opacity:1.0000000"
       d="M 26.937500,14.250000 C 26.838406,14.262048 26.742754,14.293932 26.656250,14.343750 L 16.656250,19.343750 C 16.444497,19.451931 16.297280,19.654890 16.260194,19.889767 C 16.223108,20.124645 16.300630,20.363089 16.468750,20.531250 L 30.000000,32.000000 L 16.468750,43.468750 C 16.300630,43.636911 16.223108,43.875355 16.260194,44.110233 C 16.297280,44.345110 16.444497,44.548069 16.656250,44.656250 L 26.656250,49.656250 C 27.018819,49.844617 27.465450,49.705044 27.656250,49.343750 L 32.456818,36.000000 L 37.343750,49.343750 C 37.534550,49.705044 37.981181,49.844617 38.343750,49.656250 L 48.343750,44.656250 C 48.555503,44.548069 48.702720,44.345110 48.739806,44.110233 C 48.776892,43.875355 48.699370,43.636911 48.531250,43.468750 L 35.000000,32.000000 L 48.531250,20.531250 C 48.699370,20.363089 48.776892,20.124645 48.739806,19.889767 C 48.702720,19.654890 48.555503,19.451931 48.343750,19.343750 L 38.343750,14.343750 C 37.981181,14.155383 37.534550,14.294956 37.343750,14.656250 L 32.456818,28.000000 L 27.656250,14.656250 C 27.520808,14.387999 27.237175,14.227684 26.937500,14.250000 z "
       id="path2840" />
    <path
       sodipodi:type="inkscape:offset"
       inkscape:radius="-0.73152483"
       inkscape:original="M 27.000000 15.000000 L 17.000000 20.000000 L 31.000000 32.000000 L 17.000000 44.000000 L 27.000000 49.000000 L 32.468750 34.000000 L 38.000000 49.000000 L 48.000000 44.000000 L 34.000000 32.000000 L 48.000000 20.000000 L 38.000000 15.000000 L 32.468750 30.000000 L 27.000000 15.000000 z "
       style="fill:url(#linearGradient1365);fill-opacity:1.0000000;stroke:none;stroke-width:2.0000000;stroke-linecap:round;stroke-linejoin:round;stroke-miterlimit:4.0000000;stroke-opacity:1.0000000"
       id="path1362"
       d="M 38.406250,16.000000 L 33.156250,30.250000 C 33.051075,30.539047 32.776337,30.731439 32.468750,30.731439 C 32.161163,30.731439 31.886425,30.539047 31.781250,30.250000 L 26.593750,16.031250 L 18.312500,20.156250 L 31.468750,31.437500 C 31.635887,31.576496 31.732556,31.782619 31.732556,32.000000 C 31.732556,32.217381 31.635887,32.423504 31.468750,32.562500 L 18.312500,43.843750 L 26.593750,47.968750 L 31.781250,33.750000 C 31.886425,33.460953 32.161163,33.268561 32.468750,33.268561 C 32.776337,33.268561 33.051075,33.460953 33.156250,33.750000 L 38.406250,48.000000 L 46.687500,43.843750 L 33.531250,32.562500 C 33.364113,32.423504 33.267444,32.217381 33.267444,32.000000 C 33.267444,31.782619 33.364113,31.576496 33.531250,31.437500 L 46.687500,20.156250 L 38.406250,16.000000 z " />
  </g>
</svg>
